HIERARCHY
ROOT Hips
{
	OFFSET 0.000000 100.481300 0.000000
	CHANNELS 6 Xposition Yposition Zposition Xrotation Yrotation Zrotation
	JOINT Spine
	{
		OFFSET -0.279200 12.230698 -2.892100
		CHANNELS 3 Xrotation Yrotation Zrotation
		JOINT Spine1
		{
			OFFSET -0.325700 14.269203 -3.374200
			CHANNELS 3 Xrotation Yrotation Zrotation
			JOINT Spine2
			{
				OFFSET -0.372300 16.307602 -0.352600
				CHANNELS 3 Xrotation Yrotation Zrotation
				JOINT Neck
				{
					OFFSET -0.418800 17.814194 8.416900
					CHANNELS 3 Xrotation Yrotation Zrotation
					JOINT Head
					{
						OFFSET 0.000000 7.031097 3.806800
						CHANNELS 3 Xrotation Yrotation Zrotation
						JOINT HeadTop_End
						{
							OFFSET 0.000000 24.646606 12.978600
							CHANNELS 3 Xrotation Yrotation Zrotation
							End Site
							{
								OFFSET 0.000000 27.854965 0.000000
							}
						}
					}
				}
				JOINT LeftShoulder
				{
					OFFSET 16.952999 14.495407 -7.737500
					CHANNELS 3 Xrotation Yrotation Zrotation
					JOINT LeftArm
					{
						OFFSET 9.308998 -2.777710 0.208600
						CHANNELS 3 Xrotation Yrotation Zrotation
						JOINT LeftForeArm
						{
							OFFSET 29.972298 0.000000 0.000000
							CHANNELS 3 Xrotation Yrotation Zrotation
							JOINT LeftHand
							{
								OFFSET 26.026505 0.000000 0.000000
								CHANNELS 3 Xrotation Yrotation Zrotation
								JOINT LeftHandThumb1
								{
									OFFSET 12.240501 -7.147949 9.207150
									CHANNELS 3 Xrotation Yrotation Zrotation
									JOINT LeftHandThumb2
									{
										OFFSET 4.138618 -2.389435 2.389433
										CHANNELS 3 Xrotation Yrotation Zrotation
										JOINT LeftHandThumb3
										{
											OFFSET 2.726913 -1.574387 1.574386
											CHANNELS 3 Xrotation Yrotation Zrotation
											JOINT LeftHandThumb4
											{
												OFFSET 3.941010 -2.275345 2.275342
												CHANNELS 3 Xrotation Yrotation Zrotation
												End Site
												{
													OFFSET -0.005798 5.087799 0.009903
												}
											}
										}
									}
								}
								JOINT LeftHandIndex1
								{
									OFFSET 24.424698 -1.985611 5.953459
									CHANNELS 3 Xrotation Yrotation Zrotation
									JOINT LeftHandIndex2
									{
										OFFSET 6.426697 0.000000 0.000000
										CHANNELS 3 Xrotation Yrotation Zrotation
										JOINT LeftHandIndex3
										{
											OFFSET 5.337898 0.000000 0.000000
											CHANNELS 3 Xrotation Yrotation Zrotation
											JOINT LeftHandIndex4
											{
												OFFSET 4.409401 0.000000 0.000000
												CHANNELS 3 Xrotation Yrotation Zrotation
												End Site
												{
													OFFSET 0.000000 4.409363 0.014373
												}
											}
										}
									}
								}
								JOINT LeftHandMiddle1
								{
									OFFSET 23.810104 0.000000 0.000000
									CHANNELS 3 Xrotation Yrotation Zrotation
									JOINT LeftHandMiddle2
									{
										OFFSET 7.176498 0.000000 0.000000
										CHANNELS 3 Xrotation Yrotation Zrotation
										JOINT LeftHandMiddle3
										{
											OFFSET 6.774902 0.000000 0.000000
											CHANNELS 3 Xrotation Yrotation Zrotation
											JOINT LeftHandMiddle4
											{
												OFFSET 5.403328 0.000000 0.000000
												CHANNELS 3 Xrotation Yrotation Zrotation
												End Site
												{
													OFFSET -0.027702 5.403244 0.017414
												}
											}
										}
									}
								}
								JOINT LeftHandRing1
								{
									OFFSET 22.908401 -0.839279 -6.020567
									CHANNELS 3 Xrotation Yrotation Zrotation
									JOINT LeftHandRing2
									{
										OFFSET 6.337502 0.000000 0.000000
										CHANNELS 3 Xrotation Yrotation Zrotation
										JOINT LeftHandRing3
										{
											OFFSET 5.779297 0.000000 0.000000
											CHANNELS 3 Xrotation Yrotation Zrotation
											JOINT LeftHandRing4
											{
												OFFSET 4.965698 0.000000 0.000000
												CHANNELS 3 Xrotation Yrotation Zrotation
												End Site
												{
													OFFSET 0.000000 4.965668 0.016186
												}
											}
										}
									}
								}
								JOINT LeftHandPinky1
								{
									OFFSET 20.037003 -1.530319 -10.950146
									CHANNELS 3 Xrotation Yrotation Zrotation
									JOINT LeftHandPinky2
									{
										OFFSET 5.254700 0.000000 0.000000
										CHANNELS 3 Xrotation Yrotation Zrotation
										JOINT LeftHandPinky3
										{
											OFFSET 4.810204 0.000000 0.000000
											CHANNELS 3 Xrotation Yrotation Zrotation
											JOINT LeftHandPinky4
											{
												OFFSET 3.647202 0.000000 0.000000
												CHANNELS 3 Xrotation Yrotation Zrotation
												End Site
												{
													OFFSET 0.000000 3.647186 0.011889
												}
											}
										}
									}
								}
							}
						}
					}
				}
				JOINT RightShoulder
				{
					OFFSET -15.141001 14.495407 -7.737500
					CHANNELS 3 Xrotation Yrotation Zrotation
					JOINT RightArm
					{
						OFFSET -9.308998 -2.777710 0.208500
						CHANNELS 3 Xrotation Yrotation Zrotation
						JOINT RightForeArm
						{
							OFFSET -29.972300 0.000000 0.000000
							CHANNELS 3 Xrotation Yrotation Zrotation
							JOINT RightHand
							{
								OFFSET -26.026505 0.000000 0.000000
								CHANNELS 3 Xrotation Yrotation Zrotation
								JOINT RightHandThumb1
								{
									OFFSET -12.240601 -7.148026 9.207092
									CHANNELS 3 Xrotation Yrotation Zrotation
									JOINT RightHandThumb2
									{
										OFFSET -4.138618 -2.389435 2.389433
										CHANNELS 3 Xrotation Yrotation Zrotation
										JOINT RightHandThumb3
										{
											OFFSET -2.726974 -1.574417 1.574421
											CHANNELS 3 Xrotation Yrotation Zrotation
											JOINT RightHandThumb4
											{
												OFFSET -3.941010 -2.275345 2.275343
												CHANNELS 3 Xrotation Yrotation Zrotation
												End Site
												{
													OFFSET 0.005814 5.087799 0.009927
												}
											}
										}
									}
								}
								JOINT RightHandIndex1
								{
									OFFSET -24.424698 -1.985657 5.953444
									CHANNELS 3 Xrotation Yrotation Zrotation
									JOINT RightHandIndex2
									{
										OFFSET -6.426697 0.000000 0.000000
										CHANNELS 3 Xrotation Yrotation Zrotation
										JOINT RightHandIndex3
										{
											OFFSET -5.337898 0.000000 0.000000
											CHANNELS 3 Xrotation Yrotation Zrotation
											JOINT RightHandIndex4
											{
												OFFSET -4.409401 0.000000 0.000000
												CHANNELS 3 Xrotation Yrotation Zrotation
												End Site
												{
													OFFSET 0.000000 4.409363 0.014408
												}
											}
										}
									}
								}
								JOINT RightHandMiddle1
								{
									OFFSET -23.810097 0.000000 0.000000
									CHANNELS 3 Xrotation Yrotation Zrotation
									JOINT RightHandMiddle2
									{
										OFFSET -7.176498 0.000000 0.000000
										CHANNELS 3 Xrotation Yrotation Zrotation
										JOINT RightHandMiddle3
										{
											OFFSET -6.774902 0.000000 0.000000
											CHANNELS 3 Xrotation Yrotation Zrotation
											JOINT RightHandMiddle4
											{
												OFFSET -5.403328 0.000000 0.000000
												CHANNELS 3 Xrotation Yrotation Zrotation
												End Site
												{
													OFFSET 0.027702 5.403244 0.017457
												}
											}
										}
									}
								}
								JOINT RightHandRing1
								{
									OFFSET -22.908302 -0.839325 -6.020576
									CHANNELS 3 Xrotation Yrotation Zrotation
									JOINT RightHandRing2
									{
										OFFSET -6.337502 0.000000 0.000000
										CHANNELS 3 Xrotation Yrotation Zrotation
										JOINT RightHandRing3
										{
											OFFSET -5.779297 0.000000 0.000000
											CHANNELS 3 Xrotation Yrotation Zrotation
											JOINT RightHandRing4
											{
												OFFSET -4.965698 0.000000 0.000000
												CHANNELS 3 Xrotation Yrotation Zrotation
												End Site
												{
													OFFSET 0.000000 4.965668 0.016226
												}
											}
										}
									}
								}
								JOINT RightHandPinky1
								{
									OFFSET -20.037003 -1.530334 -10.950259
									CHANNELS 3 Xrotation Yrotation Zrotation
									JOINT RightHandPinky2
									{
										OFFSET -5.254700 0.000000 0.000000
										CHANNELS 3 Xrotation Yrotation Zrotation
										JOINT RightHandPinky3
										{
											OFFSET -4.810204 0.000000 0.000000
											CHANNELS 3 Xrotation Yrotation Zrotation
											JOINT RightHandPinky4
											{
												OFFSET -3.647202 0.000000 0.000000
												CHANNELS 3 Xrotation Yrotation Zrotation
												End Site
												{
													OFFSET 0.000000 3.647186 0.011917
												}
											}
										}
									}
								}
							}
						}
					}
				}
			}
		}
	}
	JOINT LeftUpLeg
	{
		OFFSET 15.427100 -6.655098 0.678600
		CHANNELS 3 Xrotation Yrotation Zrotation
		JOINT LeftLeg
		{
			OFFSET 4.081073 -39.591068 13.024000
			CHANNELS 3 Xrotation Yrotation Zrotation
			JOINT LeftFoot
			{
				OFFSET -4.081074 -37.707932 -15.979700
				CHANNELS 3 Xrotation Yrotation Zrotation
				JOINT LeftToeBase
				{
					OFFSET 5.346399 -15.068900 20.645000
					CHANNELS 3 Xrotation Yrotation Zrotation
					JOINT LeftToe_End
					{
						OFFSET 2.754700 0.931300 11.300900
						CHANNELS 3 Xrotation Yrotation Zrotation
						End Site
						{
							OFFSET 0.000000 11.669021 0.000000
						}
					}
				}
			}
		}
	}
	JOINT RightUpLeg
	{
		OFFSET -15.569500 -6.655098 0.678600
		CHANNELS 3 Xrotation Yrotation Zrotation
		JOINT RightLeg
		{
			OFFSET -4.081825 -39.591045 13.023800
			CHANNELS 3 Xrotation Yrotation Zrotation
			JOINT RightFoot
			{
				OFFSET 4.081824 -37.707954 -15.979600
				CHANNELS 3 Xrotation Yrotation Zrotation
				JOINT RightToeBase
				{
					OFFSET -5.346400 -15.068900 20.645000
					CHANNELS 3 Xrotation Yrotation Zrotation
					JOINT RightToe_End
					{
						OFFSET -2.754700 0.931300 11.300900
						CHANNELS 3 Xrotation Yrotation Zrotation
						End Site
						{
							OFFSET 0.000000 11.669021 0.000000
						}
					}
				}
			}
		}
	}
}
MOTION
Frames: 4
Frame Time: 0.033333
0.289058 78.876213 -0.157205 3.037466 -58.355080 6.232969 11.190422 0.276971 -2.458521 8.434587 0.027705 -5.592322 8.457059 0.027854 -5.591866 -21.555655 25.063377 12.062569 -0.294040 25.465752 -3.208976 0.000000 0.000001 -0.000000 -6.221674 -11.503863 -4.023826 -23.062178 9.568549 -36.639607 0.046101 -43.169111 -0.011165 22.743760 -5.685860 15.979291 -1.064237 -7.954898 8.490083 2.373395 19.986074 -2.038339 0.808197 1.237783 2.631747 -0.000000 -0.000000 -0.000001 13.340877 -1.006667 10.682260 -0.167590 0.303373 -31.105617 -0.143399 0.303646 -32.256272 0.000001 -0.000001 -0.000000 8.495445 -0.329576 -0.915309 0.231517 0.661184 -29.901858 0.444097 0.213449 -44.357014 0.000001 -0.000001 -0.000001 6.111751 3.150908 -16.210964 0.047063 0.322393 -30.125471 0.408800 0.818959 -42.140662 0.000002 -0.000000 0.000000 -5.636018 7.709845 -13.878621 0.224401 0.276611 -46.588369 0.261234 0.249366 -46.286843 -0.000001 0.000001 -0.000000 -5.488240 10.658259 2.466537 -41.473803 -26.755574 30.079074 24.955438 111.862974 -23.308471 -8.702497 12.423032 -9.801966 0.265000 10.061126 -10.888486 1.383817 -17.412883 3.016288 3.342335 -13.253726 -8.262748 -0.000003 0.000002 -0.000001 19.443593 11.174447 -13.340205 -0.118650 -0.322722 18.035599 -0.089912 -0.286603 23.256591 -0.000001 -0.000001 -0.000001 4.320481 2.436949 -4.811725 0.349121 -0.461246 26.890316 0.467477 0.154065 39.044838 0.000000 0.000000 0.000000 -7.005648 -10.695117 5.719837 0.111866 -0.089221 26.155894 0.451295 -0.473553 33.265053 0.000001 -0.000001 -0.000001 -19.433519 -20.238185 5.987880 0.223770 -0.085827 36.844561 0.260789 -0.047495 36.471697 -0.000001 -0.000002 0.000000 -34.682420 8.729305 27.684334 40.318310 -8.743027 -10.519667 -7.477122 -1.700985 -10.845888 -0.354880 1.238055 0.775505 -0.000000 -0.000001 -0.000000 -31.023436 -7.189573 -29.208375 46.890270 5.288285 -6.185772 -19.302068 0.930658 23.072109 -0.351793 -0.997036 -0.771245 -0.000000 0.000000 -0.000000 
0.207985 78.898460 -0.283434 3.128873 -58.324249 6.331916 11.171156 0.266202 -2.469183 8.395648 0.018133 -5.570923 8.418125 0.018263 -5.570459 -21.510658 24.985534 11.887908 -0.355239 25.296792 -2.888427 -0.000000 0.000000 0.000000 -6.233786 -11.505381 -4.148180 -22.523394 10.489732 -36.761359 1.282497 -45.652096 0.846618 21.912876 -4.465115 14.447397 -1.004424 -7.827157 8.591783 2.399420 20.018087 -2.066925 0.849971 1.416592 2.715113 -0.000000 -0.000001 0.000003 13.331003 -0.914276 10.672737 -0.187326 0.301579 -31.272366 -0.162681 0.295045 -32.241505 0.000001 0.000000 -0.000001 8.415757 -0.554468 -0.856931 0.242557 0.670346 -30.241714 0.443619 0.223360 -44.727883 0.000000 -0.000001 -0.000000 6.029721 2.951704 -16.288801 0.064363 0.337873 -30.427352 0.402007 0.833280 -42.490569 0.000000 0.000000 -0.000000 -5.706250 7.522672 -14.184915 0.241363 0.269392 -46.975381 0.259234 0.239777 -46.533826 -0.000001 0.000001 -0.000002 -5.518020 10.715851 2.580167 -43.167448 -26.980847 28.170512 27.312741 112.436990 -25.350158 -8.921194 12.260797 -7.973542 0.364038 9.978221 -10.596911 1.410880 -17.447698 3.037474 3.365543 -13.381253 -8.308333 -0.000002 -0.000003 0.000000 19.395678 11.284076 -13.409179 -0.131642 -0.311461 18.192506 -0.096870 -0.278985 23.174929 -0.000000 0.000001 -0.000000 4.255509 2.620200 -4.661418 0.360567 -0.469015 27.102341 0.475293 0.143977 39.104189 0.000001 -0.000000 -0.000001 -7.041838 -10.547365 6.075222 0.128974 -0.098840 26.468501 0.451334 -0.482312 33.587247 0.000001 -0.000000 0.000001 -19.397377 -20.210994 6.638345 0.246096 -0.088772 37.341979 0.271947 -0.037094 36.950473 0.000000 -0.000001 -0.000000 -34.707562 8.669535 27.575811 40.261363 -8.659304 -10.222935 -7.427533 -1.662452 -11.127486 -0.354430 1.238118 0.776408 0.000000 0.000001 0.000000 -31.125343 -7.262742 -29.226280 46.968793 5.324662 -6.046032 -19.344539 1.011193 22.858823 -0.360345 -0.997497 -0.752285 0.000000 -0.000002 -0.000000 
0.004522 78.962738 -0.627894 3.234686 -58.273671 6.475846 11.117420 0.240204 -2.494899 8.286963 -0.006224 -5.523286 8.309439 -0.006053 -5.522827 -21.339111 24.656734 11.311066 -0.646403 24.703445 -1.826258 0.000000 0.000000 -0.000001 -6.271235 -11.501502 -4.510976 -22.405017 11.507416 -36.505568 -0.782163 -47.873605 -0.720113 23.381551 -3.578812 11.944559 -0.843559 -7.489660 8.854675 2.481051 20.100979 -2.144503 0.984163 1.905176 2.949349 -0.000001 0.000000 0.000001 13.284376 -0.699040 10.607858 -0.186700 0.303732 -31.758375 -0.162677 0.295018 -32.240952 -0.000002 0.000000 0.000001 8.211244 -1.149815 -0.611737 0.244769 0.671865 -31.137453 0.451028 0.224972 -45.672106 -0.000001 0.000000 -0.000000 5.814365 2.427931 -16.454238 0.067321 0.341881 -31.236501 0.409672 0.836842 -43.412259 -0.000000 -0.000000 -0.000001 -5.895461 7.036063 -15.018186 0.244642 0.270240 -48.049742 0.262638 0.241368 -47.214256 0.000000 0.000001 -0.000001 -5.616929 10.883121 2.975750 -44.961803 -27.101842 26.006481 29.342445 113.389214 -26.850505 -9.059440 11.973475 -6.868118 0.623070 9.759536 -9.885232 1.488304 -17.547116 3.098186 3.427445 -13.735988 -8.460131 -0.000000 -0.000001 0.000000 19.269953 11.559613 -13.554411 -0.130974 -0.313103 18.661986 -0.097235 -0.278441 22.984275 0.000001 -0.000001 -0.000000 4.086131 3.095388 -4.242327 0.362238 -0.473268 27.702192 0.474923 0.144391 39.268708 -0.000002 0.000001 -0.000000 -7.140582 -10.159053 7.012829 0.128472 -0.102133 27.326952 0.455319 -0.482040 34.447345 0.000001 -0.000000 -0.000000 -19.314960 -20.124046 8.333543 0.245907 -0.089779 38.686670 0.273958 -0.040881 38.185935 0.000002 0.000000 0.000000 -34.499627 8.352310 27.579896 39.896679 -8.394084 -10.036848 -7.206805 -1.596081 -11.681729 -0.358267 1.238112 0.767723 -0.000000 -0.000001 -0.000000 -31.173465 -7.294165 -29.114122 47.155869 5.219974 -5.788417 -19.516115 1.110916 22.438256 -0.376108 -0.997469 -0.716340 -0.000000 -0.000001 -0.000000 
-0.298149 79.052048 -1.149548 3.317262 -58.252573 6.621780 11.033138 0.202820 -2.541868 8.117608 -0.038673 -5.473968 8.140086 -0.038528 -5.473508 -20.999389 23.927722 10.262870 -1.270404 23.519143 0.106163 -0.000000 0.000000 0.000000 -6.329895 -11.496740 -5.097037 -22.639521 12.742108 -35.798435 -1.220281 -50.158167 -1.173835 23.775772 -2.908645 9.057609 -0.609811 -7.010845 9.214315 2.600851 20.229504 -2.263279 1.179274 2.649307 3.302927 -0.000000 -0.000000 0.000002 13.187523 -0.450024 10.433589 -0.190621 0.299494 -32.543218 -0.162495 0.295325 -32.319181 0.000001 0.000001 -0.000001 7.941672 -2.000310 -0.075153 0.254441 0.684164 -32.405310 0.458936 0.238794 -46.939720 0.000000 -0.000000 0.000001 5.515081 1.688540 -16.606415 0.074706 0.345734 -32.409357 0.423668 0.844550 -44.714926 -0.000002 -0.000000 -0.000001 -6.172402 6.363241 -16.252538 0.253148 0.274454 -49.679535 0.267851 0.243703 -48.239311 -0.000001 -0.000001 -0.000001 -5.786396 11.151763 3.735699 -46.736816 -26.947600 23.942393 31.783223 114.521324 -28.640255 -8.998167 12.141580 -7.239222 0.985607 9.452371 -8.996095 1.610073 -17.703517 3.194028 3.523128 -14.294730 -8.698782 -0.000002 -0.000005 0.000002 19.097923 11.923153 -13.683555 -0.131848 -0.309997 19.440651 -0.101787 -0.279604 22.768950 0.000001 -0.000002 -0.000001 3.853451 3.752287 -3.601149 0.364624 -0.478993 28.637974 0.474360 0.145008 39.517890 -0.000003 0.000000 -0.000001 -7.285414 -9.611516 8.344432 0.130019 -0.110910 28.610599 0.467830 -0.482902 35.688548 0.000001 0.000000 0.000001 -19.226839 -19.968820 10.693270 0.248039 -0.093947 40.656271 0.282568 -0.044716 39.882793 0.000004 0.000001 -0.000003 -34.087060 7.875987 27.721820 39.283451 -7.990366 -9.965644 -6.855403 -1.507998 -12.435857 -0.359547 1.238121 0.764793 -0.000000 -0.000001 -0.000000 -31.158288 -7.221671 -28.866883 47.426057 4.981650 -5.443134 -19.778309 1.210316 21.909826 -0.381242 -0.997385 -0.704840 0.000000 0.000001 -0.000000 
